<svg xmlns="http://www.w3.org/2000/svg" viewBox="0 0 75 35"><path d="M5.868 23.094h0.966c0.945 0 1.323-0.252 1.323-1.26V9.362H7.611c-2.96 0-3.59 2.058-4.115 5.291H3.202l0.273-5.606h11.149 l0.231 5.606h-0.294c-0.504-3.233-1.155-5.291-4.115-5.291H9.899v12.472c0 1 0.4 1.3 1.3 1.26h0.945v0.314H5.868V23.094z"/><path d="M15.885 23.115h0.147c0.924 0 1.134-0.231 1.134-1.176V16.06c0-0.945-0.252-1.176-1.134-1.176h-0.147v-0.252l2.792-0.168 l-0.147 3.548h0.042c0.651-2.289 1.701-3.653 3.086-3.653c1.071 0 1.7 0.6 1.7 1.365c0 0.819-0.462 1.239-1.05 1.2 c-0.525 0-0.945-0.336-0.945-0.861c0-0.462 0.252-0.672 0.441-0.84c0.105-0.084 0.168-0.147 0.168-0.252 c0-0.168-0.21-0.21-0.462-0.21c-1.512 0-2.792 2.981-2.792 4.64v2.5c0 0.9 0.2 1.2 1.1 1.176h0.483v0.293h-4.43V23.115z"/><path d="M23.781 19.063c0-2.833 1.974-4.745 4.073-4.745c1.68 0 3.6 1.3 3.6 4.011c0 0.063-0.021 0.524-0.042 0.629h-5.921 c0 2.3 0.9 4.1 2.7 4.095c1.617 0 2.436-0.818 3.128-1.826l0.231 0.168c-0.777 1.303-1.995 2.33-3.821 2.3 C25.356 23.7 23.8 21.9 23.8 19.063z M28.652 18.621c0.84 0 1.071-0.271 1.071-0.944c0-1.68-0.588-3.044-1.932-3.044 c-1.47 0-2.226 1.575-2.289 3.989L28.652 18.621L28.652 18.621z M26.7 13.31l1.848-2.478c0.357-0.483 0.735-0.693 1.134-0.693 c0.441 0 0.8 0.4 0.8 0.714c0 0.336-0.168 0.693-0.798 1.05l-2.792 1.554L26.7 13.31z"/><path d="M33.84 22.884c-0.315 0-0.588 0.253-0.756 0.714h-0.21v-3.568h0.189c0.357 2.1 2 3.3 3.7 3.3 c1.239 0 2.121-0.714 2.121-1.7c0-0.943-0.65-1.303-2.771-1.911c-1.848-0.524-3.128-1.008-3.128-2.834 c0-1.512 1.134-2.457 2.729-2.457c1.218 0 1.8 0.5 2.4 0.546c0.336 0 0.608-0.168 0.756-0.525h0.21v3.191H38.9 c-0.336-1.722-1.533-2.918-3.297-2.918c-0.966 0-1.743 0.63-1.743 1.554c0 1 0.8 1.3 2.6 1.8 c2.29 0.6 3.3 1.3 3.3 2.919c0 1.68-1.279 2.667-3.086 2.667C35.373 23.6 34.3 22.9 33.8 22.884z"/><path d="M40.813 19c0-2.73 2.142-4.683 4.115-4.683c1.973 0 4.1 1.9 4.1 4.64c0 2.667-2.121 4.768-4.094 4.8 C42.953 23.7 40.8 21.7 40.8 19z M47.258 19.021c0-2.437-0.63-4.41-2.33-4.41c-1.701 0-2.33 1.932-2.33 4.4 c0 2.4 0.6 4.5 2.3 4.451S47.258 21.4 47.3 19.021z"/><path d="M49.8 23.115h0.147c0.924 0 1.133-0.231 1.133-1.176V16.06c0-0.945-0.252-1.176-1.133-1.176H49.8v-0.252l2.792-0.168 l-0.146 3.548h0.043c0.65-2.289 1.699-3.653 3.087-3.653c1.069 0 1.7 0.6 1.7 1.365c0 0.819-0.463 1.239-1.051 1.2 c-0.524 0-0.944-0.336-0.944-0.861c0-0.462 0.252-0.672 0.44-0.84c0.104-0.084 0.168-0.147 0.168-0.252 c0-0.168-0.209-0.21-0.462-0.21c-1.512 0-2.793 2.981-2.793 4.64v2.5c0 0.9 0.2 1.2 1.1 1.176h0.482v0.293H49.8V23.115z"/></svg>
